<?xml version="1.0" standalone="no"?>
<!DOCTYPE svg PUBLIC "-//W3C//DTD SVG 20010904//EN"
 "http://www.w3.org/TR/2001/REC-SVG-20010904/DTD/svg10.dtd">
<svg version="1.0" xmlns="http://www.w3.org/2000/svg"
 width="180.000000pt" height="45.000000pt" viewBox="0 0 180.000000 45.000000"
 preserveAspectRatio="xMidYMid meet">

<g transform="translate(0.000000,45.000000) scale(0.100000,-0.100000)"
fill="#000000" stroke="none">
<path d="M531 301 c-16 -28 -4 -49 32 -56 57 -11 67 -16 67 -30 0 -24 -39 -39
-66 -26 -13 6 -24 15 -24 21 0 5 -4 10 -10 10 -18 0 -11 -29 9 -40 43 -23 111
-5 111 29 0 25 -18 38 -63 46 -41 8 -59 31 -36 46 22 14 51 10 72 -8 19 -17
19 -17 16 2 -6 30 -93 35 -108 6z"/>
<path d="M940 295 c0 -8 -6 -15 -12 -15 -10 0 -10 -2 -1 -8 6 -4 13 -28 15
-52 3 -40 6 -45 28 -48 22 -2 23 -1 8 8 -12 7 -18 24 -18 50 0 28 5 40 18 43
16 4 16 5 0 6 -10 0 -18 8 -18 16 0 8 -4 15 -10 15 -5 0 -10 -7 -10 -15z"/>
<path d="M670 275 c0 -3 9 -23 20 -45 24 -47 26 -80 5 -80 -8 0 -15 -5 -15
-11 0 -6 8 -9 18 -7 10 2 31 31 49 68 35 70 38 80 24 80 -4 0 -17 -21 -27 -47
l-18 -48 -20 48 c-11 26 -23 47 -28 47 -4 0 -8 -2 -8 -5z"/>
<path d="M806 264 c-9 -22 4 -35 45 -43 18 -4 34 -12 36 -18 6 -17 -46 -28
-60 -14 -17 17 -31 13 -17 -5 9 -10 26 -14 49 -12 31 3 36 7 36 28 0 20 -7 26
-37 33 -45 11 -52 37 -10 37 15 0 34 -6 41 -12 11 -11 13 -10 9 2 -7 23 -84
26 -92 4z"/>
<path d="M1016 265 c-48 -48 25 -123 84 -85 8 5 11 12 7 16 -3 4 -14 1 -22 -6
-12 -10 -21 -10 -40 -2 -37 17 -30 32 13 32 50 0 71 14 56 37 -15 24 -77 29
-98 8z m74 -5 c19 -12 12 -18 -25 -20 -45 -3 -49 -1 -35 15 14 17 38 19 60 5z"/>
<path d="M1150 223 c0 -29 5 -53 10 -53 6 0 10 20 10 45 0 39 3 45 24 51 37 9
46 -2 47 -54 l1 -47 9 44 c9 48 23 63 54 59 16 -2 21 -13 26 -53 l6 -50 -1 55
c-1 53 -2 55 -29 58 -16 2 -34 -2 -42 -8 -9 -8 -15 -8 -20 0 -3 5 -26 9 -51 8
l-44 -1 0 -54z"/>
<path d="M1387 273 c-17 -16 -6 -43 21 -49 45 -10 52 -13 52 -24 0 -18 -31
-24 -52 -11 -22 13 -34 9 -23 -8 9 -16 71 -13 85 4 18 22 8 37 -34 49 -21 6
-37 16 -37 21 0 14 41 19 54 6 17 -17 31 -13 17 4 -12 15 -71 21 -83 8z"/>
</g>
</svg>
